<svg version="1.2" xmlns="http://www.w3.org/2000/svg" viewBox="0 0 24 24" width="24" height="24">
	<style>
		.s0 { fill: #e3e3e3 } 
	</style>
	<g id="Layer 1">
		<path class="s0" d="m11 21.73l-7-4.03q-0.47-0.28-0.74-0.72-0.26-0.45-0.26-1.01v-7.95q0-0.54 0.26-1 0.27-0.45 0.74-0.72l7-4.03q0.48-0.27 1-0.27 0.53 0 1 0.27l7 4.03q0.48 0.27 0.74 0.72 0.26 0.46 0.26 1v7.96q0 0.55-0.26 1-0.26 0.44-0.74 0.72l-7 4.03q-0.47 0.27-1 0.27-0.52 0-1-0.27zm2-2.3l6-3.48v-6.85l-6 3.47zm-2 0v-6.85l-6-3.47v6.85zm6.93-12l-5.93-3.43-5.92 3.43 5.92 3.42z"/>
	</g>
</svg>