<svg version="1.2" xmlns="http://www.w3.org/2000/svg" viewBox="0 0 209 209" width="209" height="209">
	<style>
		.s0 { fill: #000000;stroke: #000000;stroke-miterlimit:10 } 
		.s1 { fill: #000000;stroke: #ffffff;stroke-miterlimit:10 } 
		.s2 { fill: #c673ff;stroke: #c673ff;stroke-miterlimit:10 } 
		.s3 { fill: #ffffff;stroke: #ffffff;stroke-miterlimit:10 } 
	</style>
	<g id="Layer 1">
		<path id="Shape 4" fill-rule="evenodd" class="s0" d="m36 0h137c19.88 0 36 16.12 36 36v137c0 19.88-16.12 36-36 36h-137c-19.88 0-36-16.12-36-36v-137c0-19.88 16.12-36 36-36z"/>
		<path id="Shape 3" fill-rule="evenodd" class="s1" d=""/>
		<path id="Shape 1" fill-rule="evenodd" class="s2" d="m128.2 24.01l-15.54 21.83h-62.78l15.54-21.83z"/>
		<path id="Shape 1 copy" fill-rule="evenodd" class="s3" d="m169.81 52.39l-15.54 21.82h-123.35l15.54-21.82z"/>
		<path id="Shape 1 copy 2" fill-rule="evenodd" class="s3" d="m196.89 80.76l-15.55 21.83h-117.36l15.54-21.83z"/>
		<path id="Shape 1 copy 6" fill-rule="evenodd" class="s2" d="m70.14 80.76l-15.53 21.83h-42.52l15.53-21.83z"/>
		<path id="Shape 1 copy 7" fill-rule="evenodd" class="s2" d="m196.89 108.13l-15.53 21.83h-42.53l15.54-21.83z"/>
		<path id="Shape 1 copy 3" fill-rule="evenodd" class="s3" d="m144.61 109.09l-15.53 21.83h-117.37l15.53-21.83z"/>
		<path id="Shape 1 copy 4" fill-rule="evenodd" class="s3" d="m177.9 136.49l-15.53 21.83h-123.55l15.54-21.83z"/>
		<path id="Shape 1 copy 5" fill-rule="evenodd" class="s2" d="m158.33 164.62l-15.53 21.83h-62.4l15.53-21.83z"/>
	</g>
</svg>